<svg xmlns="http://www.w3.org/2000/svg" viewBox="0 0 1408 256"><defs><style>.cls-1{fill:#566;}.cls-2{fill:#233;}.cls-3{fill:#1aa;}.cls-4{fill:#333;}.cls-5{fill:#666;}</style></defs><g id="Capa_2" data-name="Capa 2"><g id="Layer_1" data-name="Layer 1"><polygon class="cls-1" points="144 64 112 64 112 100.29 80.57 82.14 64.57 109.86 128 146.47 191.43 109.86 175.43 82.14 144 100.29 144 64"/><polygon class="cls-2" points="112 192 144 192 144 155.71 175.43 173.86 191.43 146.14 128 109.53 64.57 146.14 80.57 173.86 112 155.71 112 192"/><polygon class="cls-3" points="256 91.05 256 54.1 224 35.62 224 35.62 162.3 0 146.3 27.71 224 72.57 224 183.43 146.3 228.29 162.3 256 224 220.38 224 220.38 256 201.9 256 201.9 256 201.9 256 164.95 256 164.95 256 91.05 256 91.05"/><polygon class="cls-3" points="109.7 27.71 93.7 0 32 35.62 32 35.62 0 54.1 0 54.1 0 54.1 0 91.05 0 91.05 0 164.95 0 164.95 0 201.9 32 220.38 32 220.38 93.7 256 109.7 228.29 32 183.43 32 72.57 109.7 27.71"/><polygon class="cls-4" points="464 80 464 120 416 120 416 80 400 80 400 120 400 136 400 176 416 176 416 136 464 136 464 176 480 176 480 136 480 120 480 80 464 80"/><polygon class="cls-4" points="572 96 572 80 516 80 500 80 500 96 500 120 500 136 500 160 500 176 516 176 572 176 572 160 516 160 516 136 564 136 564 120 516 120 516 96 572 96"/><polygon class="cls-4" points="672 80 640 135.43 608 80 592 80 592 176 608 176 608 112 640 167.43 649.24 151.43 649.24 151.43 672 112 672 176 688 176 688 80 672 80"/><polygon class="cls-4" points="780 96 780 80 724 80 708 80 708 96 708 120 708 136 708 160 708 176 724 176 780 176 780 160 724 160 724 136 772 136 772 120 724 120 724 96 780 96"/><polygon class="cls-4" points="376 80 352 80 336 80 312 80 312 96 340 96 340 176 356 176 356 96 376 96 384 96 384 80 376 80"/><path class="cls-5" d="M1024,80H984v96h16V144h24a32,32,0,0,0,0-64Zm0,48h-24V96h24a16,16,0,0,1,0,32Z"/><path class="cls-5" d="M1112,80h-40v96h16V144h24a32,32,0,0,0,0-64Zm0,48h-24V96h24a16,16,0,0,1,0,32Z"/><path class="cls-5" d="M1196,80a40,40,0,0,0-40,40v16a40,40,0,0,0,80,0V120A40,40,0,0,0,1196,80Zm0,80a24,24,0,0,1-24-24V120a24,24,0,0,1,48,0v16A24,24,0,0,1,1196,160Z"/><path class="cls-5" d="M1324,112a32,32,0,0,0-32-32h-40v96h16V144h19l18.47,32H1324l-19.86-34.4A32,32,0,0,0,1324,112Zm-56-16h24a16,16,0,0,1,0,32h-24Z"/><path class="cls-5" d="M948,80v60a20,20,0,0,1-40,0V80H892v60a36,36,0,0,0,72,0V80Z"/><polygon class="cls-5" points="1400 80 1376 80 1360 80 1336 80 1336 96 1364 96 1364 176 1380 176 1380 96 1400 96 1408 96 1408 80 1400 80"/><path class="cls-5" d="M848,120H824a12,12,0,0,1,0-24h24a12,12,0,0,1,12,12h16a28,28,0,0,0-28-28H824a28,28,0,0,0,0,56h24a12,12,0,0,1,0,24H824a12,12,0,0,1-12-12H796a28,28,0,0,0,28,28h24a28,28,0,0,0,0-56Z"/></g></g></svg>