<?xml version="1.0" encoding="UTF-8"?><svg id="Layer_1" xmlns="http://www.w3.org/2000/svg" viewBox="0 0 256 256"><defs><style>.cls-1{fill:#233;}.cls-2{fill:#566;}.cls-3{fill:none;}.cls-4{fill:#1aa;}</style></defs><rect class="cls-3" width="256" height="256"/><polygon class="cls-2" points="141.86 72.57 114.14 72.57 114.14 104 86.93 88.29 73.07 112.29 128 144 182.93 112.29 169.07 88.29 141.86 104 141.86 72.57"/><polygon class="cls-1" points="114.14 183.43 141.86 183.43 141.86 152 169.07 167.71 182.93 143.71 128 112 73.07 143.71 86.93 167.71 114.14 152 114.14 183.43"/><g><polygon class="cls-4" points="238.85 96 238.85 64 211.14 48 211.14 48 157.7 17.15 143.85 41.15 211.14 80 211.14 176 143.85 214.85 157.7 238.85 211.14 208 211.14 208 238.85 192 238.85 192 238.85 192 238.85 160 238.85 160 238.85 96 238.85 96"/><polygon class="cls-4" points="112.15 41.15 98.3 17.15 44.86 48 44.86 48 17.15 64 17.15 64 17.15 64 17.15 96 17.15 96 17.15 160 17.15 160 17.15 192 44.86 208 44.86 208 98.3 238.85 112.15 214.85 44.86 176 44.86 80 112.15 41.15"/></g></svg>